<?xml version="1.0" standalone="no"?>
<!DOCTYPE svg PUBLIC "-//W3C//DTD SVG 20010904//EN"
 "http://www.w3.org/TR/2001/REC-SVG-20010904/DTD/svg10.dtd">
<svg version="1.0" xmlns="http://www.w3.org/2000/svg"
 width="311.000000pt" height="311.000000pt" viewBox="0 0 311.000000 311.000000"
 preserveAspectRatio="xMidYMid meet">
<metadata>
Created by potrace 1.11, written by Peter Selinger 2001-2013
</metadata>
<g transform="translate(0.000000,311.000000) scale(0.100000,-0.100000)"
fill="#000000" stroke="none">
<path d="M0 1555 l0 -1555 1555 0 1555 0 0 1555 0 1555 -1555 0 -1555 0 0
-1555z m1830 1261 c383 -65 580 -150 645 -276 9 -17 22 -79 30 -138 8 -59 19
-136 25 -172 12 -81 25 -181 50 -379 18 -136 20 -217 20 -701 0 -617 8 -560
-83 -560 -100 0 -97 4 -97 -126 l0 -114 -33 -36 c-63 -69 -172 -53 -211 30
-12 25 -16 63 -16 140 l0 106 -600 0 -600 0 0 -100 c0 -62 -5 -113 -14 -133
-35 -84 -132 -114 -196 -61 -51 43 -60 72 -60 187 0 119 2 117 -97 117 -91 0
-83 -53 -83 529 l0 516 54 418 c60 462 68 494 144 557 48 40 178 103 267 129
90 26 297 68 400 80 103 13 346 6 455 -13z"/>
<path d="M1080 2673 c-27 -10 -40 -36 -40 -83 0 -85 -30 -80 522 -80 457 0
486 1 501 18 25 27 23 106 -3 132 -19 19 -33 20 -492 19 -260 0 -480 -3 -488
-6z"/>
<path d="M793 2405 c-24 -10 -34 -23 -41 -52 -13 -52 -92 -650 -92 -691 0 -24
9 -42 29 -63 l29 -29 837 0 c617 0 842 3 858 12 35 18 46 40 46 88 1 69 -84
682 -97 706 -6 12 -26 27 -43 33 -22 8 -254 11 -763 11 -601 -1 -737 -3 -763
-15z"/>
<path d="M707 1191 c-40 -38 -42 -41 -45 -113 -3 -64 -1 -77 20 -108 30 -45
81 -70 143 -70 104 0 165 60 165 162 0 120 -48 168 -168 168 -71 0 -74 -1
-115 -39z"/>
<path d="M2198 1215 c-45 -25 -68 -74 -68 -147 0 -51 5 -72 23 -99 29 -44 80
-69 140 -69 102 0 158 51 165 152 5 70 -9 108 -55 148 -31 28 -40 30 -106 30
-43 -1 -83 -7 -99 -15z"/>
</g>
</svg>
